<?xml version="1.0" standalone="no"?>
<!DOCTYPE svg PUBLIC "-//W3C//DTD SVG 20010904//EN"
 "http://www.w3.org/TR/2001/REC-SVG-20010904/DTD/svg10.dtd">
<svg version="1.0" xmlns="http://www.w3.org/2000/svg"
 width="248.000000pt" height="248.000000pt" viewBox="0 0 248.000000 248.000000"
 preserveAspectRatio="xMidYMid meet">
<metadata>
Created by potrace 1.11, written by Peter Selinger 2001-2013
</metadata>
<g transform="translate(0.000000,248.000000) scale(0.100000,-0.100000)"
fill="#000000" stroke="none">
<path d="M1850 1873 c-103 -5 -1312 -43 -1369 -43 -28 0 -51 -3 -50 -7 0 -5
47 -48 105 -98 l105 -90 -98 -8 c-54 -4 -126 -11 -161 -15 l-63 -7 206 -169
c167 -137 204 -171 193 -181 -7 -7 -137 -122 -288 -255 -151 -133 -276 -245
-278 -249 -1 -4 24 -6 55 -4 32 1 286 10 566 19 l507 16 187 -151 c103 -83
191 -151 195 -151 4 0 8 61 8 135 l0 135 335 0 c184 0 335 3 335 6 0 3 -72
109 -160 235 l-160 230 19 37 c11 20 74 132 140 247 l120 210 -42 3 c-23 1
-359 -15 -747 -37 l-705 -40 -37 42 c-20 23 -37 44 -38 48 0 5 63 12 845 95
231 24 425 46 430 48 11 5 -48 4 -155 -1z m340 -233 c0 -9 -204 -347 -218
-362 -4 -4 -50 68 -104 160 -53 92 -94 169 -91 172 2 3 91 12 196 21 106 9
198 17 205 18 6 0 12 -3 12 -9z m-398 -227 c62 -109 113 -205 112 -213 -1 -18
-262 -380 -274 -380 -10 0 -640 549 -640 558 0 4 46 54 103 110 l103 103 150
8 c82 4 190 9 241 10 l92 1 113 -197z m-802 102 c-35 -36 -69 -65 -75 -65 -6
0 -41 26 -79 57 -64 54 -67 58 -45 64 13 4 78 7 144 8 l119 1 -64 -65z m-248
-82 c-5 -32 -31 -65 -43 -57 -5 2 1 14 11 24 11 11 20 32 20 46 0 14 4 23 9
20 4 -3 6 -18 3 -33z m78 -41 c0 -13 -57 -71 -64 -65 -3 3 7 21 22 39 26 32
42 42 42 26z m23 -76 c-15 -17 -29 -33 -30 -35 -2 -2 -6 -1 -9 2 -9 8 49 75
59 69 5 -2 -4 -18 -20 -36z m39 -19 c-12 -13 -22 -32 -22 -42 0 -14 -3 -16
-11 -8 -16 16 -1 53 24 63 32 13 33 12 9 -13z m48 -63 c-7 -7 -20 -14 -28 -14
-12 0 -11 4 6 16 12 8 23 25 23 37 2 21 2 21 6 -1 3 -13 -1 -30 -7 -38z m43
-21 c-21 -47 -22 -47 -28 -41 -8 8 24 78 35 78 5 0 2 -17 -7 -37z m28 -170
c109 -97 197 -179 193 -182 -5 -5 -816 -31 -822 -26 -4 3 412 384 421 384 4 1
98 -78 208 -176z m19 163 c0 -2 -7 -20 -16 -41 -16 -40 -31 -42 -18 -3 4 13 9
26 10 31 1 4 2 9 3 12 1 6 21 7 21 1z m79 -73 c-2 -22 -36 -86 -41 -77 -7 11
23 84 34 84 5 0 8 -3 7 -7z m976 -153 c58 -76 105 -142 105 -145 0 -3 -97 -5
-216 -5 -185 0 -215 2 -211 15 6 15 207 275 213 275 2 0 51 -63 109 -140z
m-1045 126 c0 -3 -4 -8 -10 -11 -5 -3 -10 -1 -10 4 0 6 5 11 10 11 6 0 10 -2
10 -4z m103 -50 c-15 -17 -29 -33 -30 -35 -2 -2 -6 -1 -9 2 -9 8 49 75 59 69
5 -2 -4 -18 -20 -36z m46 -42 c-31 -32 -55 -40 -30 -10 7 8 10 20 6 25 -3 7 0
8 9 5 9 -4 18 1 22 10 3 9 11 13 16 10 5 -4 -5 -21 -23 -40z m91 -80 c0 -30
-4 -54 -10 -54 -6 0 -10 27 -10 61 0 37 4 58 10 54 6 -3 10 -31 10 -61z m50 6
c0 -5 -5 -10 -11 -10 -5 0 -7 5 -4 10 3 6 8 10 11 10 2 0 4 -4 4 -10z m-100
-10 c0 -5 -5 -10 -11 -10 -5 0 -7 5 -4 10 3 6 8 10 11 10 2 0 4 -4 4 -10z
m107 -54 c-17 -19 -34 -33 -38 -30 -4 2 7 20 23 39 17 19 34 32 38 30 4 -3 -6
-20 -23 -39z m48 -33 c0 -20 -4 -38 -10 -40 -6 -2 -9 12 -8 29 2 48 2 48 11
48 4 0 7 -16 7 -37z m50 -50 c0 -22 -5 -38 -14 -41 -10 -3 -11 0 -5 9 4 8 7
26 5 41 -1 16 1 28 6 28 5 0 8 -16 8 -37z m43 -42 c-18 -22 -36 -37 -41 -34
-9 6 51 73 66 73 4 0 -7 -18 -25 -39z"/>
</g>
</svg>
